<svg width="60" height="60" viewBox="0 0 60 60" fill="none" xmlns="http://www.w3.org/2000/svg">
<path fill-rule="evenodd" clip-rule="evenodd" d="M48.8572 6C48.8572 8.84032 46.5546 11.1429 43.7143 11.1429C46.5546 11.1429 48.8572 13.4454 48.8572 16.2857C48.8572 13.4454 51.1597 11.1429 54 11.1429C51.1597 11.1429 48.8572 8.84032 48.8572 6Z" fill="#333333"/>
<path fill-rule="evenodd" clip-rule="evenodd" d="M9.42857 47.1429C9.42857 49.0364 7.89355 50.5714 6 50.5714C7.89355 50.5714 9.42857 52.1064 9.42857 54C9.42857 52.1064 10.9636 50.5714 12.8571 50.5714C10.9636 50.5714 9.42857 49.0364 9.42857 47.1429Z" fill="#333333"/>
<mask id="path-3-inside-1_6870_61813" fill="white">
<path fill-rule="evenodd" clip-rule="evenodd" d="M13.1429 21.4286C12.0383 21.4286 11.1429 22.324 11.1429 23.4286V29.7143C11.1429 30.8189 12.0383 31.7143 13.1429 31.7143H28.2857V21.4286H13.1429ZM31.7143 21.4286V31.7143H46.8571C47.9617 31.7143 48.8571 30.8189 48.8571 29.7143V23.4286C48.8571 22.324 47.9617 21.4286 46.8571 21.4286H31.7143Z"/>
</mask>
<path d="M28.2857 31.7143V34.2143H30.7857V31.7143H28.2857ZM28.2857 21.4286H30.7857V18.9286H28.2857V21.4286ZM31.7143 21.4286V18.9286H29.2143V21.4286H31.7143ZM31.7143 31.7143H29.2143V34.2143H31.7143V31.7143ZM13.6429 23.4286C13.6429 23.7047 13.419 23.9286 13.1429 23.9286V18.9286C10.6576 18.9286 8.64285 20.9433 8.64285 23.4286H13.6429ZM13.6429 29.7143V23.4286H8.64285V29.7143H13.6429ZM13.1429 29.2143C13.419 29.2143 13.6429 29.4381 13.6429 29.7143H8.64285C8.64285 32.1996 10.6576 34.2143 13.1429 34.2143V29.2143ZM28.2857 29.2143H13.1429V34.2143H28.2857V29.2143ZM30.7857 31.7143V21.4286H25.7857V31.7143H30.7857ZM13.1429 23.9286H28.2857V18.9286H13.1429V23.9286ZM29.2143 21.4286V31.7143H34.2143V21.4286H29.2143ZM46.8571 29.2143H31.7143V34.2143H46.8571V29.2143ZM46.3571 29.7143C46.3571 29.4381 46.581 29.2143 46.8571 29.2143V34.2143C49.3424 34.2143 51.3571 32.1996 51.3571 29.7143H46.3571ZM46.3571 23.4286V29.7143H51.3571V23.4286H46.3571ZM46.8571 23.9286C46.581 23.9286 46.3571 23.7047 46.3571 23.4286H51.3571C51.3571 20.9433 49.3424 18.9286 46.8571 18.9286V23.9286ZM31.7143 23.9286H46.8571V18.9286H31.7143V23.9286Z" fill="#333333" mask="url(#path-3-inside-1_6870_61813)"/>
<mask id="path-5-inside-2_6870_61813" fill="white">
<path fill-rule="evenodd" clip-rule="evenodd" d="M28.2857 33.4286H14.5714V46.5714C14.5714 48.7806 16.3623 50.5714 18.5714 50.5714H28.2857V33.4286ZM31.7143 50.5714H41.4286C43.6377 50.5714 45.4286 48.7806 45.4286 46.5714V33.4286H31.7143V50.5714Z"/>
</mask>
<path fill-rule="evenodd" clip-rule="evenodd" d="M28.2857 33.4286H14.5714V46.5714C14.5714 48.7806 16.3623 50.5714 18.5714 50.5714H28.2857V33.4286ZM31.7143 50.5714H41.4286C43.6377 50.5714 45.4286 48.7806 45.4286 46.5714V33.4286H31.7143V50.5714Z" fill="#EFAEAE"/>
<path d="M14.5714 33.4286V30.9286H12.0714V33.4286H14.5714ZM28.2857 33.4286H30.7857V30.9286H28.2857V33.4286ZM28.2857 50.5714V53.0714H30.7857V50.5714H28.2857ZM31.7143 50.5714H29.2143V53.0714H31.7143V50.5714ZM45.4286 33.4286H47.9286V30.9286H45.4286V33.4286ZM31.7143 33.4286V30.9286H29.2143V33.4286H31.7143ZM14.5714 35.9286H28.2857V30.9286H14.5714V35.9286ZM17.0714 46.5714V33.4286H12.0714V46.5714H17.0714ZM18.5714 48.0714C17.743 48.0714 17.0714 47.3999 17.0714 46.5714H12.0714C12.0714 50.1613 14.9816 53.0714 18.5714 53.0714V48.0714ZM28.2857 48.0714H18.5714V53.0714H28.2857V48.0714ZM30.7857 50.5714V33.4286H25.7857V50.5714H30.7857ZM41.4286 48.0714H31.7143V53.0714H41.4286V48.0714ZM42.9286 46.5714C42.9286 47.3999 42.257 48.0714 41.4286 48.0714V53.0714C45.0184 53.0714 47.9286 50.1613 47.9286 46.5714H42.9286ZM42.9286 33.4286V46.5714H47.9286V33.4286H42.9286ZM31.7143 35.9286H45.4286V30.9286H31.7143V35.9286ZM29.2143 33.4286V50.5714H34.2143V33.4286H29.2143Z" fill="#333333" mask="url(#path-5-inside-2_6870_61813)"/>
<path fill-rule="evenodd" clip-rule="evenodd" d="M22.8372 11.5831C21.3317 10.9592 19.684 12.227 20.0607 13.9663C20.2745 14.9534 21.131 15.9093 22.2842 16.7172C22.823 17.0946 23.3494 17.3852 23.7424 17.5813C23.8458 17.6328 23.9387 17.6772 24.0187 17.7143H27.0228C26.7198 17.0644 26.3083 16.2283 25.8272 15.3682C25.307 14.4381 24.7312 13.5263 24.1495 12.8007C23.5277 12.0249 23.0692 11.6793 22.8372 11.5831ZM32.0525 17.7143C32.4392 17.1423 32.9275 16.4666 33.4833 15.7972C34.1841 14.9532 34.9441 14.178 35.6962 13.6289C36.472 13.0625 37.05 12.8746 37.4287 12.8746C39.854 12.8746 40.2658 14.9421 39.8593 15.6613C39.539 16.2281 38.8716 16.774 38.089 17.2175C37.7244 17.4241 37.3865 17.5795 37.1419 17.6822C37.1147 17.6936 37.0888 17.7043 37.0643 17.7143H32.0525ZM37.4287 19.7143L38.0584 21.6126C37.8553 21.6799 37.6427 21.7143 37.4287 21.7143H23.6029C23.3544 21.7143 23.1081 21.668 22.8766 21.5777L23.6029 19.7143C22.8766 21.5777 22.8771 21.578 22.8766 21.5777L22.8714 21.5757L22.8646 21.573L22.8456 21.5655L22.7875 21.5419C22.7402 21.5224 22.6758 21.4952 22.5965 21.4606C22.4381 21.3914 22.2191 21.2914 21.9573 21.1608C21.4373 20.9015 20.7306 20.5126 19.9892 19.9933C18.5821 19.0076 16.6902 17.3012 16.1513 14.8129C15.0226 9.60137 20.186 6.15452 24.3686 7.88789C25.5587 8.38108 26.5371 9.38377 27.2706 10.2989C28.0443 11.2642 28.7424 12.3859 29.3183 13.4157C29.4525 13.6557 29.5815 13.8931 29.7046 14.1255C29.9244 13.8363 30.1588 13.5395 30.4059 13.2419C31.2184 12.2634 32.2175 11.2161 33.3376 10.3983C34.4339 9.59788 35.8413 8.87457 37.4287 8.87457C42.8674 8.87457 45.2794 14.2007 43.3417 17.6294C42.4899 19.1365 41.0714 20.1251 40.0611 20.6976C39.5293 20.9989 39.044 21.2219 38.6895 21.3706C38.5112 21.4455 38.3631 21.5027 38.2551 21.5428C38.201 21.5628 38.1568 21.5786 38.1237 21.5902L38.0823 21.6045L38.0681 21.6093L38.0627 21.6111L38.0604 21.6119C38.0599 21.6121 38.0584 21.6126 37.4287 19.7143Z" fill="#EFAEAE"/>
</svg>
