<svg width="22" height="22" viewBox="0 0 22 22" fill="none" xmlns="http://www.w3.org/2000/svg">
<path fill-rule="evenodd" clip-rule="evenodd" d="M5.50419 2.75C5.03268 2.75 4.65045 3.13223 4.65045 3.60373V3.61842V8.82894H3.33682C2.30183 8.82894 1.5695 9.84081 1.89295 10.824L4.32122 18.205C4.52637 18.8286 5.10865 19.25 5.76509 19.25H15.435C16.0885 19.25 16.6689 18.8323 16.8764 18.2127L19.3481 10.8316C19.6778 9.84697 18.9451 8.82894 17.9068 8.82894H16.6029V3.60373C16.6029 3.13223 16.2207 2.75 15.7491 2.75C15.7467 2.75 15.7442 2.75001 15.7418 2.75003C15.7393 2.75001 15.7368 2.75 15.7343 2.75H5.51888C5.51642 2.75 5.51396 2.75001 5.5115 2.75003C5.50906 2.75001 5.50663 2.75 5.50419 2.75ZM6.35792 4.48684V8.82894H14.8954V4.48684H6.35792ZM9.77637 12.288C9.77637 11.8165 10.1586 11.4343 10.6301 11.4343C11.1016 11.4343 11.4838 11.8165 11.4838 12.288V15.791C11.4838 16.2626 11.1016 16.6448 10.6301 16.6448C10.1586 16.6448 9.77637 16.2626 9.77637 15.7911V12.288ZM7.21454 11.4343C6.74304 11.4343 6.36081 11.8165 6.36081 12.288V15.7911C6.36081 16.2626 6.74304 16.6448 7.21454 16.6448C7.68604 16.6448 8.06827 16.2626 8.06827 15.791V12.288C8.06827 11.8165 7.68604 11.4343 7.21454 11.4343ZM13.1885 12.288C13.1885 11.8165 13.5707 11.4343 14.0422 11.4343C14.5137 11.4343 14.896 11.8165 14.896 12.288V15.791C14.896 16.2626 14.5137 16.6448 14.0422 16.6448C13.5707 16.6448 13.1885 16.2626 13.1885 15.7911V12.288Z" fill="#666666"/>
</svg>
