<svg width="26" height="28" viewBox="0 0 26 28" fill="none" xmlns="http://www.w3.org/2000/svg">
<path fill-rule="evenodd" clip-rule="evenodd" d="M7.38476 4.24316C6.82713 4.24316 6.37508 4.69521 6.37508 5.25285V5.27022V11.4325H4.43785C3.40286 11.4325 2.67053 12.4444 2.99398 13.4275L6.04851 22.7122C6.25365 23.3358 6.83593 23.7572 7.49238 23.7572H19.3295C19.983 23.7572 20.5633 23.3395 20.7708 22.7198L23.88 13.4352C24.2097 12.4506 23.4771 11.4325 22.4387 11.4325H20.5108V5.25285C20.5108 4.69521 20.0588 4.24316 19.5011 4.24316C19.4982 4.24316 19.4953 4.24318 19.4924 4.2432C19.4895 4.24318 19.4865 4.24316 19.4836 4.24316H7.40214C7.39923 4.24316 7.39632 4.24318 7.39341 4.2432C7.39053 4.24318 7.38765 4.24316 7.38476 4.24316ZM8.39445 6.29727V11.4325H18.4915V6.29727H8.39445ZM12.4373 15.5234C12.4373 14.9658 12.8894 14.5138 13.447 14.5138C14.0046 14.5138 14.4567 14.9658 14.4567 15.5234V19.6664C14.4567 20.224 14.0046 20.6761 13.447 20.6761C12.8894 20.6761 12.4373 20.224 12.4373 19.6664V15.5234ZM9.40754 14.5138C8.84991 14.5138 8.39786 14.9658 8.39786 15.5234V19.6664C8.39786 20.224 8.84991 20.6761 9.40754 20.6761C9.96517 20.6761 10.4172 20.224 10.4172 19.6664V15.5234C10.4172 14.9658 9.96517 14.5138 9.40754 14.5138ZM16.4727 15.5234C16.4727 14.9658 16.9248 14.5138 17.4824 14.5138C18.0401 14.5138 18.4921 14.9658 18.4921 15.5234V19.6664C18.4921 20.224 18.0401 20.6761 17.4824 20.6761C16.9248 20.6761 16.4727 20.224 16.4727 19.6664V15.5234Z" fill="white"/>
</svg>
