<svg width="24" height="24" viewBox="0 0 24 24" fill="none" xmlns="http://www.w3.org/2000/svg">
<path d="M21.738 5.54517H16.766C16.2205 5.54517 15.7783 5.98733 15.7783 6.53287V11.3957H21.738C22.2836 11.3957 22.7258 10.9534 22.7258 10.408V6.53287C22.7258 5.98733 22.2836 5.54517 21.738 5.54517" stroke="#333333" stroke-width="0.75"/>
<mask id="path-2-inside-1_3680_36644" fill="white">
<path fill-rule="evenodd" clip-rule="evenodd" d="M3.29931 17.3773C2.02945 17.3773 1.00006 18.4068 1.00006 19.6767C1.00006 20.9466 2.02945 21.976 3.29931 21.976C4.56917 21.976 5.59865 20.9466 5.59865 19.6767C5.59865 18.4068 4.56917 17.3773 3.29931 17.3773"/>
</mask>
<path d="M3.29931 16.6273C1.6152 16.6273 0.250061 17.9926 0.250061 19.6767H1.75006C1.75006 18.821 2.4437 18.1273 3.29931 18.1273V16.6273ZM0.250061 19.6767C0.250061 21.3608 1.61522 22.726 3.29931 22.726V21.226C2.44368 21.226 1.75006 20.5324 1.75006 19.6767H0.250061ZM3.29931 22.726C4.98336 22.726 6.34865 21.3608 6.34865 19.6767H4.84865C4.84865 20.5324 4.15498 21.226 3.29931 21.226V22.726ZM6.34865 19.6767C6.34865 17.9926 4.98338 16.6273 3.29931 16.6273V18.1273C4.15496 18.1273 4.84865 18.821 4.84865 19.6767H6.34865Z" fill="#333333" mask="url(#path-2-inside-1_3680_36644)"/>
<mask id="path-4-inside-2_3680_36644" fill="white">
<path fill-rule="evenodd" clip-rule="evenodd" d="M11.1595 5.37568C12.0916 5.37568 12.8474 4.62 12.8474 3.68779C12.8474 2.75568 12.0916 2 11.1595 2C10.2273 2 9.47162 2.75568 9.47162 3.68779C9.47162 4.62 10.2273 5.37568 11.1595 5.37568"/>
</mask>
<path d="M11.1595 6.12568C12.5058 6.12568 13.5974 5.03424 13.5974 3.68779H12.0974C12.0974 4.20576 11.6774 4.62568 11.1595 4.62568V6.12568ZM13.5974 3.68779C13.5974 2.34141 12.5058 1.25 11.1595 1.25V2.75C11.6775 2.75 12.0974 3.16995 12.0974 3.68779H13.5974ZM11.1595 1.25C9.81311 1.25 8.72162 2.34144 8.72162 3.68779H10.2216C10.2216 3.16992 10.6415 2.75 11.1595 2.75V1.25ZM8.72162 3.68779C8.72162 5.03421 9.81309 6.12568 11.1595 6.12568V4.62568C10.6415 4.62568 10.2216 4.20579 10.2216 3.68779H8.72162Z" fill="#333333" mask="url(#path-4-inside-2_3680_36644)"/>
<mask id="path-6-inside-3_3680_36644" fill="white">
<path fill-rule="evenodd" clip-rule="evenodd" d="M18.096 17.3773C16.8261 17.3773 15.7967 18.4068 15.7967 19.6767C15.7967 20.9466 16.8261 21.976 18.096 21.976C19.3658 21.976 20.3953 20.9466 20.3953 19.6767C20.3953 18.4068 19.3658 17.3773 18.096 17.3773"/>
</mask>
<path d="M18.096 16.6273C16.4118 16.6273 15.0467 17.9926 15.0467 19.6767H16.5467C16.5467 18.821 17.2403 18.1273 18.096 18.1273V16.6273ZM15.0467 19.6767C15.0467 21.3608 16.4119 22.726 18.096 22.726V21.226C17.2403 21.226 16.5467 20.5324 16.5467 19.6767H15.0467ZM18.096 22.726C19.78 22.726 21.1453 21.3608 21.1453 19.6767H19.6453C19.6453 20.5324 18.9516 21.226 18.096 21.226V22.726ZM21.1453 19.6767C21.1453 17.9926 19.78 16.6273 18.096 16.6273V18.1273C18.9516 18.1273 19.6453 18.821 19.6453 19.6767H21.1453Z" fill="#333333" mask="url(#path-6-inside-3_3680_36644)"/>
<path fill-rule="evenodd" clip-rule="evenodd" d="M15.7783 12.8918C15.1008 12.9306 14.3648 13.0243 13.5833 13.2012C11.6636 13.6358 13.1556 15.9647 13.1556 15.9647V17.7607L11.3103 17.7528C11.1989 16.4614 11.0015 14.2013 10.9609 13.8944C10.8519 13.0688 11.6515 12.939 11.6515 12.939C11.6515 12.939 11.8901 12.8503 13.147 12.5223C14.4036 12.1944 14.0193 11.0728 14.0193 11.0728L13.3755 6.96038C13.3755 6.96038 13.2129 5.59756 11.8177 5.94169C10.5507 6.25427 11.0635 7.66657 11.0635 7.66657C11.0635 7.66657 11.0668 7.68216 11.0721 7.70826C9.86479 8.79042 8.22019 8.9092 8.22019 8.9092C7.53822 8.96517 6.72948 8.5554 6.72948 8.5554C6.72948 8.5554 5.58986 9.07963 5.24883 9.4277C4.90789 9.77587 5.02592 10.1914 5.24883 10.3312C5.48103 10.4767 6.34479 10.4804 6.34479 10.4804C6.85624 10.5188 6.71014 10.8161 6.71014 10.8161L7.73305 11.3044L8.68141 10.192C10.1324 9.96329 11.1424 9.3308 11.3688 9.17869C11.4741 9.7123 11.5699 10.2175 11.5862 10.3666C11.6245 10.7197 11.3876 10.782 11.3876 10.782C11.3876 10.782 10.1038 11.266 9.5123 11.4674C8.79577 11.7115 9.11765 13.0154 9.11765 13.0154L9.53371 17.7452L8.56113 17.741V17.7408H8.5261L8.29681 17.7399V17.7408H7.37577L5.41296 14.4871C5.41296 14.4871 6.88066 12.2923 7.73305 11.3044L6.71014 10.8161C6.71014 10.8161 3.2031 11.6426 1.93671 14.6339L2.79718 15.6494C2.32563 15.8188 1.58601 16.2346 1 17.2476L1.20892 17.2771C1.65221 16.8556 2.22789 16.5652 2.88094 16.4797C4.52019 16.2652 6.02291 17.4202 6.23756 19.0594C6.27146 19.3184 6.27089 19.5739 6.24 19.8215C6.73784 19.9312 7.41587 20.0264 8.29681 20.0426V20.0454H14.6601C14.852 18.0627 16.9531 16.5438 18.6147 15.598C19.3366 15.6054 20.0291 16.675 21.1606 17.8132C22.3268 18.9864 22.6533 18.9295 22.6533 18.9295L20.4124 14.6613C20.5062 14.6124 20.5758 14.5733 20.6161 14.5446C21.1252 14.1808 20.1071 13.0303 20.1071 13.0303H22.7257V12.5069H15.7783V12.8918Z" stroke="#333333" stroke-width="0.75"/>
</svg>
