<svg width="24" height="24" viewBox="0 0 24 24" fill="none" xmlns="http://www.w3.org/2000/svg">
<path fill-rule="evenodd" clip-rule="evenodd" d="M21.428 0C21.428 1.42 20.277 2.572 18.857 2.572C20.277 2.572 21.428 3.723 21.428 5.143C21.428 3.723 22.58 2.572 24 2.572C22.58 2.572 21.428 1.42 21.428 0V0Z" fill="#333333"/>
<path fill-rule="evenodd" clip-rule="evenodd" d="M1.714 20.571C1.714 21.518 0.946 22.285 0 22.285C0.946 22.285 1.714 23.053 1.714 24C1.714 23.053 2.482 22.285 3.428 22.285C2.482 22.285 1.714 21.518 1.714 20.571Z" fill="#333333"/>
<path fill-rule="evenodd" clip-rule="evenodd" d="M3.57202 7.71411C3.02002 7.71411 2.57202 8.16211 2.57202 8.71411V11.8571C2.57202 12.4091 3.02002 12.8571 3.57202 12.8571H11.143V11.5881V11.6941H9.99202V11.7061H3.72402V8.86511H9.13502V8.84811H11.135V9.03511H11.143V9.43411V7.71411H3.57202V7.71411ZM14.009 8.86511V8.86711H12.857V7.71411H20.429C20.981 7.71411 21.429 8.16211 21.429 8.71411V11.8571C21.429 12.4091 20.981 12.8571 20.429 12.8571H12.857V11.7141H14.856V11.7061H20.278V8.86511H14.009V8.86511Z" fill="#333333"/>
<path fill-rule="evenodd" clip-rule="evenodd" d="M9.91797 21.061H11.143H9.91797ZM5.47597 13.714H4.28497V21.285C4.28597 21.838 4.73297 22.285 5.28497 22.285H11.143V21.061H5.50997L5.50897 15.672L5.47597 15.67V13.714V13.714ZM14.85 21.061H18.489V14.939H18.485V13.714H19.713V21.285C19.713 21.838 19.266 22.285 18.713 22.285H12.856V21.061H14.85V21.061Z" fill="#333333"/>
<path fill-rule="evenodd" clip-rule="evenodd" d="M8.41697 2.79095C7.66497 2.47995 6.84097 3.11295 7.02897 3.98295C7.13597 4.47595 7.56497 4.95395 8.14197 5.35795C8.40997 5.54695 8.67397 5.69295 8.86997 5.79095C8.92197 5.81595 8.96897 5.83895 9.00897 5.85695H10.51C10.359 5.53195 10.154 5.11395 9.91297 4.68295C9.65297 4.21895 9.36497 3.76295 9.07397 3.39995C8.76297 3.01195 8.53397 2.83895 8.41697 2.79095V2.79095ZM13.025 5.85695C13.219 5.57095 13.463 5.23295 13.741 4.89795C14.091 4.47595 14.471 4.08895 14.847 3.81395C15.235 3.53095 15.524 3.43695 15.713 3.43695C16.926 3.43695 17.132 4.47095 16.928 4.83095C16.769 5.11395 16.435 5.38695 16.043 5.60895C15.861 5.71195 15.692 5.78995 15.57 5.84095C15.556 5.84595 15.543 5.85195 15.531 5.85695H13.025V5.85695ZM15.713 6.85695L16.028 7.80595C15.927 7.83895 15.82 7.85695 15.713 7.85695H8.80097C8.67597 7.85695 8.55397 7.83395 8.43697 7.78895L8.80097 6.85695C8.43697 7.78895 8.43797 7.78895 8.43697 7.78895L8.43497 7.78695H8.43097L8.42197 7.78295L8.39297 7.77095C8.36897 7.76095 8.33697 7.74695 8.29797 7.72995C8.21797 7.69495 8.10897 7.64595 7.97797 7.57995C7.71697 7.44995 7.36497 7.25595 6.99397 6.99695C6.29097 6.50395 5.34397 5.64995 5.07497 4.40595C4.50997 1.79995 7.09197 0.07695 9.18297 0.94395C9.77797 1.19095 10.268 1.69095 10.635 2.14995C11.021 2.63095 11.37 3.19295 11.658 3.70795C11.725 3.82795 11.79 3.94595 11.851 4.06195C11.961 3.91795 12.079 3.76895 12.202 3.61995C12.609 3.13095 13.108 2.60795 13.668 2.19895C14.216 1.79895 14.92 1.43695 15.713 1.43695C18.432 1.43695 19.639 4.09995 18.67 5.81495C18.244 6.56795 17.535 7.06195 17.029 7.34895C16.764 7.49895 16.52 7.61095 16.344 7.68495C16.254 7.72295 16.18 7.75095 16.127 7.77195C16.099 7.78095 16.077 7.78895 16.061 7.79495L16.04 7.80195L16.033 7.80495L16.03 7.80595H16.029C16.029 7.80595 16.028 7.80595 15.713 6.85695V6.85695Z" fill="#333333"/>
<path fill-rule="evenodd" clip-rule="evenodd" d="M11.143 7.85693H12.856V8.86693H12.846V11.0869H12.853L12.856 22.2849H11.143L11.151 9.43393H11.143V7.85693Z" fill="#333333"/>
<path d="M19.702 12.8571H4.28497V13.7141H19.702V12.8571Z" fill="#333333"/>
</svg>
