<svg width="24" height="24" viewBox="0 0 24 24" fill="none" xmlns="http://www.w3.org/2000/svg">
<path fill-rule="evenodd" clip-rule="evenodd" d="M22.003 11.999C22.003 6.47605 17.525 1.99805 12.002 1.99805C6.478 1.99805 2 6.47605 2 11.999C2 17.523 6.478 22.001 12.002 22.001C17.525 22.001 22.003 17.523 22.003 11.999ZM20.214 11.999C20.214 7.53605 16.596 3.91705 12.132 3.91705C7.669 3.91705 4.049 7.53605 4.049 11.999C4.049 16.463 7.669 20.081 12.132 20.081C16.596 20.081 20.214 16.463 20.214 11.999V11.999Z" fill="#333333"/>
<path d="M12.089 19.071C15.9948 19.071 19.161 15.9048 19.161 11.999C19.161 8.09324 15.9948 4.927 12.089 4.927C8.18327 4.927 5.01703 8.09324 5.01703 11.999C5.01703 15.9048 8.18327 19.071 12.089 19.071Z" stroke="#333333" stroke-width="1.04" stroke-miterlimit="22.9256"/>
<path fill-rule="evenodd" clip-rule="evenodd" d="M11.348 13.54V16.408H9.867V8.37798C10.212 8.29998 10.594 8.24698 11.013 8.21898C11.433 8.19198 11.819 8.17798 12.171 8.17798C13.355 8.17798 14.263 8.39398 14.893 8.82498C15.524 9.25598 15.839 9.92998 15.839 10.847C15.839 11.325 15.755 11.735 15.587 12.076C15.419 12.417 15.174 12.695 14.852 12.91C14.531 13.126 14.139 13.284 13.677 13.387C13.214 13.488 12.685 13.54 12.089 13.54H11.348V13.54ZM11.348 12.269H12.065C12.779 12.269 13.328 12.169 13.711 11.97C14.096 11.77 14.288 11.392 14.288 10.835C14.288 10.569 14.237 10.345 14.135 10.165C14.033 9.98498 13.892 9.84398 13.711 9.74098C13.532 9.63998 13.317 9.56698 13.071 9.52398C12.824 9.48198 12.559 9.45998 12.277 9.45998C11.901 9.45998 11.591 9.47098 11.348 9.49498V12.269Z" fill="#333333"/>
</svg>
